<svg width="54" height="54" viewBox="0 0 54 54" fill="none" xmlns="http://www.w3.org/2000/svg">
<rect x="0.5" y="0.5" width="53" height="53" rx="8.5" stroke="#E8E8E8"/>
<g clip-path="url(#clip0_27_9358)">
<path d="M40.2933 35.4398C40.2933 35.9198 40.1867 36.4132 39.96 36.8932C39.7333 37.3732 39.44 37.8265 39.0533 38.2532C38.4 38.9732 37.68 39.4932 36.8667 39.8265C36.0667 40.1598 35.2 40.3332 34.2667 40.3332C32.9067 40.3332 31.4533 40.0132 29.92 39.3598C28.3867 38.7065 26.8533 37.8265 25.3333 36.7198C23.8 35.5998 22.3467 34.3598 20.96 32.9865C19.5867 31.5998 18.3467 30.1465 17.24 28.6265C16.1467 27.1065 15.2667 25.5865 14.6267 24.0798C13.9867 22.5598 13.6667 21.1065 13.6667 19.7198C13.6667 18.8132 13.8267 17.9465 14.1467 17.1465C14.4667 16.3332 14.9733 15.5865 15.68 14.9198C16.5333 14.0798 17.4667 13.6665 18.4533 13.6665C18.8267 13.6665 19.2 13.7465 19.5333 13.9065C19.88 14.0665 20.1867 14.3065 20.4267 14.6532L23.52 19.0132C23.76 19.3465 23.9333 19.6532 24.0533 19.9465C24.1733 20.2265 24.24 20.5065 24.24 20.7598C24.24 21.0798 24.1467 21.3998 23.96 21.7065C23.7867 22.0132 23.5333 22.3332 23.2133 22.6532L22.2 23.7065C22.0533 23.8532 21.9867 24.0265 21.9867 24.2398C21.9867 24.3465 22 24.4398 22.0267 24.5465C22.0667 24.6532 22.1067 24.7332 22.1333 24.8132C22.3733 25.2532 22.7867 25.8265 23.3733 26.5198C23.9733 27.2132 24.6133 27.9198 25.3067 28.6265C26.0267 29.3332 26.72 29.9865 27.4267 30.5865C28.12 31.1732 28.6933 31.5732 29.1467 31.8132C29.2133 31.8398 29.2933 31.8798 29.3867 31.9198C29.4933 31.9598 29.6 31.9732 29.72 31.9732C29.9467 31.9732 30.12 31.8932 30.2667 31.7465L31.28 30.7465C31.6133 30.4132 31.9333 30.1598 32.24 29.9998C32.5467 29.8132 32.8533 29.7198 33.1867 29.7198C33.44 29.7198 33.7067 29.7732 34 29.8932C34.2933 30.0132 34.6 30.1865 34.9333 30.4132L39.3467 33.5465C39.6933 33.7865 39.9333 34.0665 40.08 34.3998C40.2133 34.7332 40.2933 35.0665 40.2933 35.4398Z" stroke="#4A4A4A" stroke-width="1.5" stroke-miterlimit="10"/>
</g>
<defs>
<clipPath id="clip0_27_9358">
<rect width="32" height="32" fill="white" transform="translate(11 11)"/>
</clipPath>
</defs>
</svg>
