<svg width="52" height="52" viewBox="0 0 52 52" fill="none" xmlns="http://www.w3.org/2000/svg">
<path d="M16.0173 35.9827C19.3667 39.1721 23.3547 37.8961 24.9507 36.6041C25.7747 35.9361 26.1467 35.5041 26.4653 35.1841C27.5813 34.1481 27.5107 33.1107 26.7853 32.2814C26.4933 31.9494 24.6307 30.1601 22.844 28.3254C21.9187 27.4001 21.2813 26.7467 20.7347 26.2187C20.0053 25.4907 19.3667 24.6561 18.4093 24.6801C17.532 24.6801 16.8947 25.4534 16.096 26.2521C15.1787 27.1694 14.5013 28.3254 14.2627 29.3627C13.544 32.3934 14.6613 34.5467 16.0173 35.9827ZM16.0173 35.9827L12.6667 39.3321M35.9827 16.0201C32.632 12.8281 28.6573 14.1267 27.0627 15.4201C26.236 16.0894 25.8653 16.5214 25.5453 16.8414C24.4293 17.8787 24.5 18.9161 25.2267 19.7454C25.3307 19.8654 25.64 20.1721 26.0733 20.6041M35.9827 16.0201C37.3387 17.4561 38.4707 19.6334 37.752 22.6667C37.512 23.7041 36.8347 24.8601 35.9173 25.7787C35.12 26.5761 34.4813 27.3507 33.604 27.3507C32.6467 27.3747 32.1507 26.6814 31.4187 25.9534M35.9827 16.0201L39.3333 12.6667M26.0733 20.6041C26.848 21.3707 28.024 22.5267 29.168 23.7027C30.0933 24.6281 30.872 25.4254 31.4187 25.9521L29.336 27.9841M26.0733 20.6041L24.016 22.6734" stroke="#777777" stroke-width="1.5" stroke-linecap="round" stroke-linejoin="round"/>
</svg>
