<svg width="1513" height="441" viewBox="0 0 1513 441" fill="none" xmlns="http://www.w3.org/2000/svg">
<g clip-path="url(#clip0_89_40)">
<rect width="1513" height="441" fill="#333333"/>
<path d="M-391.75 564L-481.25 214H-445.25L-371.25 503.75L-297.5 214H-266.5L-192.5 503.75L-118.75 214H-82.75L-171.75 564H-213.25L-282 295.25L-350.75 564H-391.75ZM44.4609 570.5C21.4609 570.5 0.460943 564.583 -18.5391 552.75C-37.3724 540.917 -52.4557 525.083 -63.7891 505.25C-74.9557 485.25 -80.5391 463.167 -80.5391 439C-80.5391 420.667 -77.2891 403.583 -70.7891 387.75C-64.2891 371.75 -55.3724 357.75 -44.0391 345.75C-32.5391 333.583 -19.2057 324.083 -4.03906 317.25C11.1276 310.417 27.2943 307 44.4609 307C67.4609 307 88.3776 312.917 107.211 324.75C126.211 336.583 141.294 352.5 152.461 372.5C163.794 392.5 169.461 414.667 169.461 439C169.461 457.167 166.211 474.167 159.711 490C153.211 505.833 144.211 519.833 132.711 532C121.378 544 108.128 553.417 92.9609 560.25C77.9609 567.083 61.7943 570.5 44.4609 570.5ZM44.4609 535.5C61.4609 535.5 76.711 531.083 90.2109 522.25C103.878 513.25 114.628 501.417 122.461 486.75C130.461 472.083 134.461 456.167 134.461 439C134.461 421.5 130.461 405.417 122.461 390.75C114.461 375.917 103.628 364.083 89.9609 355.25C76.4609 346.417 61.2943 342 44.4609 342C27.4609 342 12.1276 346.5 -1.53906 355.5C-15.0391 364.333 -25.7891 376.083 -33.7891 390.75C-41.6224 405.417 -45.5391 421.5 -45.5391 439C-45.5391 457 -41.4557 473.333 -33.2891 488C-25.1224 502.5 -14.2057 514.083 -0.539056 522.75C13.1276 531.25 28.1276 535.5 44.4609 535.5ZM211.805 564V314H246.805V348.5C255.638 335.833 267.138 325.75 281.305 318.25C295.471 310.75 310.888 307 327.555 307C337.221 307 346.555 308.25 355.555 310.75L341.305 345.5C334.305 343.333 327.471 342.25 320.805 342.25C307.305 342.25 294.888 345.583 283.555 352.25C272.388 358.917 263.471 367.833 256.805 379C250.138 390.167 246.805 402.583 246.805 416.25V564H211.805ZM606.074 409.25V564H571.074V416.25C571.074 402.583 567.741 390.167 561.074 379C554.408 367.833 545.491 358.917 534.324 352.25C523.158 345.583 510.741 342.25 497.074 342.25C483.574 342.25 471.158 345.583 459.824 352.25C448.658 358.917 439.741 367.833 433.074 379C426.408 390.167 423.074 402.583 423.074 416.25V564H388.074V314H423.074V348.5C431.908 335.833 443.408 325.75 457.574 318.25C471.741 310.75 487.158 307 503.824 307C522.658 307 539.824 311.583 555.324 320.75C570.824 329.917 583.158 342.25 592.324 357.75C601.491 373.25 606.074 390.417 606.074 409.25ZM893.508 214H937.008L1064.51 564H1027.26L1000.01 489H830.758L803.508 564H766.258L893.508 214ZM843.508 454H987.008L915.258 257L843.508 454ZM1288.48 314H1323.48V573.25C1323.48 589.25 1319.98 604.25 1312.98 618.25C1306.15 632.25 1296.82 644.5 1284.98 655C1273.32 665.667 1259.98 674 1244.98 680C1229.98 686 1214.4 689 1198.23 689C1180.9 689 1164.15 685 1147.98 677C1131.82 669.167 1117.73 658.667 1105.73 645.5C1093.9 632.333 1085.48 617.75 1080.48 601.75L1112.73 587C1115.9 599.5 1121.82 610.75 1130.48 620.75C1139.32 630.917 1149.65 638.917 1161.48 644.75C1173.48 650.75 1185.73 653.75 1198.23 653.75C1209.73 653.75 1220.82 651.583 1231.48 647.25C1242.32 643.083 1251.98 637.333 1260.48 630C1269.15 622.667 1275.98 614.083 1280.98 604.25C1285.98 594.583 1288.48 584.25 1288.48 573.25V518C1279.82 533.667 1268.07 546.333 1253.23 556C1238.57 565.667 1221.48 570.5 1201.98 570.5C1184.48 570.5 1167.98 567.083 1152.48 560.25C1137.15 553.417 1123.65 544 1111.98 532C1100.32 519.833 1091.15 505.833 1084.48 490C1077.98 474.167 1074.73 457.167 1074.73 439C1074.73 420.833 1077.98 403.833 1084.48 388C1091.15 372 1100.32 358 1111.98 346C1123.65 333.833 1137.15 324.333 1152.48 317.5C1167.98 310.667 1184.48 307.25 1201.98 307.25C1221.48 307.25 1238.57 312.083 1253.23 321.75C1268.07 331.25 1279.82 343.917 1288.48 359.75V314ZM1202.23 536.5C1219.57 536.5 1234.48 532 1246.98 523C1259.65 514 1269.4 502.083 1276.23 487.25C1283.07 472.417 1286.48 456.333 1286.48 439C1286.48 421.167 1282.98 404.917 1275.98 390.25C1269.15 375.417 1259.4 363.583 1246.73 354.75C1234.07 345.75 1219.23 341.25 1202.23 341.25C1185.23 341.25 1169.73 345.667 1155.73 354.5C1141.9 363.167 1130.9 374.917 1122.73 389.75C1114.57 404.583 1110.48 421 1110.48 439C1110.48 457 1114.65 473.417 1122.98 488.25C1131.32 502.917 1142.4 514.667 1156.23 523.5C1170.23 532.167 1185.57 536.5 1202.23 536.5ZM1586.74 314H1621.74V564H1586.74L1585.49 517.5C1577.32 533.333 1565.9 546.167 1551.24 556C1536.57 565.667 1519.07 570.5 1498.74 570.5C1480.4 570.5 1463.24 567.083 1447.24 560.25C1431.24 553.25 1417.15 543.667 1404.99 531.5C1392.82 519.333 1383.32 505.25 1376.49 489.25C1369.65 473.25 1366.24 456.083 1366.24 437.75C1366.24 419.75 1369.57 402.833 1376.24 387C1383.07 371.167 1392.4 357.25 1404.24 345.25C1416.24 333.25 1430.07 323.917 1445.74 317.25C1461.57 310.417 1478.49 307 1496.49 307C1517.32 307 1535.49 312 1550.99 322C1566.49 331.833 1578.82 344.75 1587.99 360.75L1586.74 314ZM1497.99 536.5C1515.82 536.5 1531.15 532.167 1543.99 523.5C1556.82 514.667 1566.65 502.833 1573.49 488C1580.49 473.167 1583.99 456.833 1583.99 439C1583.99 420.667 1580.49 404.167 1573.49 389.5C1566.49 374.667 1556.57 362.917 1543.74 354.25C1530.9 345.583 1515.65 341.25 1497.99 341.25C1480.32 341.25 1464.15 345.667 1449.49 354.5C1434.99 363.167 1423.4 374.917 1414.74 389.75C1406.24 404.583 1401.99 421 1401.99 439C1401.99 457.167 1406.4 473.667 1415.24 488.5C1424.07 503.167 1435.74 514.833 1450.24 523.5C1464.9 532.167 1480.82 536.5 1497.99 536.5ZM1671.77 314H1706.77V564H1671.77V314ZM1689.52 270.25C1683.85 270.25 1679.02 268.417 1675.02 264.75C1671.18 260.917 1669.27 256.167 1669.27 250.5C1669.27 244.833 1671.18 240.167 1675.02 236.5C1679.02 232.667 1683.85 230.75 1689.52 230.75C1695.02 230.75 1699.68 232.667 1703.52 236.5C1707.52 240.167 1709.52 244.833 1709.52 250.5C1709.52 256.167 1707.6 260.917 1703.77 264.75C1699.93 268.417 1695.18 270.25 1689.52 270.25ZM1984 409.25V564H1949V416.25C1949 402.583 1945.67 390.167 1939 379C1932.34 367.833 1923.42 358.917 1912.25 352.25C1901.09 345.583 1888.67 342.25 1875 342.25C1861.5 342.25 1849.09 345.583 1837.75 352.25C1826.59 358.917 1817.67 367.833 1811 379C1804.34 390.167 1801 402.583 1801 416.25V564H1766V314H1801V348.5C1809.84 335.833 1821.34 325.75 1835.5 318.25C1849.67 310.75 1865.09 307 1881.75 307C1900.59 307 1917.75 311.583 1933.25 320.75C1948.75 329.917 1961.09 342.25 1970.25 357.75C1979.42 373.25 1984 390.417 1984 409.25Z" fill="#4A4A4A"/>
</g>
<defs>
<clipPath id="clip0_89_40">
<rect width="1513" height="441" fill="white"/>
</clipPath>
</defs>
</svg>
