<svg width="52" height="52" viewBox="0 0 52 52" fill="none" xmlns="http://www.w3.org/2000/svg">
<g clip-path="url(#clip0_23_9093)">
<path d="M26 20.52L24.5733 23C24.2533 23.5467 24.52 24 25.1467 24H26.84C27.48 24 27.7333 24.4534 27.4133 25L26 27.48" stroke="#777777" stroke-width="1.5" stroke-linecap="round" stroke-linejoin="round"/>
<path d="M21.0667 34.0532V32.5066C18 30.6532 15.48 27.0399 15.48 23.1999C15.48 16.5999 21.5467 11.4266 28.4 12.9199C31.4133 13.5866 34.0533 15.5866 35.4267 18.3466C38.2133 23.9466 35.28 29.8932 30.9733 32.4932V34.0399C30.9733 34.4266 31.12 35.3199 29.6933 35.3199H22.3467C20.88 35.3332 21.0667 34.7599 21.0667 34.0532Z" stroke="#777777" stroke-width="1.5" stroke-linecap="round" stroke-linejoin="round"/>
<path d="M21.3333 39.3333C24.3867 38.4667 27.6133 38.4667 30.6667 39.3333" stroke="#777777" stroke-width="1.5" stroke-linecap="round" stroke-linejoin="round"/>
</g>
<defs>
<clipPath id="clip0_23_9093">
<rect width="32" height="32" fill="white" transform="translate(10 10)"/>
</clipPath>
</defs>
</svg>
